<svg width="139" height="94" viewBox="0 0 139 94" fill="none" xmlns="http://www.w3.org/2000/svg">
<path d="M0.272728 94V0.909088H56.0909V10.9091H11.5455V42.3636H51.9091V52.3636H11.5455V94H0.272728Z" fill="white"/>
<path d="M75.3977 94V0.909088H106.852C114.155 0.909088 120.125 2.22727 124.761 4.86363C129.428 7.4697 132.883 11 135.125 15.4545C137.367 19.9091 138.489 24.8788 138.489 30.3636C138.489 35.8485 137.367 40.8333 135.125 45.3182C132.913 49.803 129.489 53.3788 124.852 56.0455C120.216 58.6818 114.277 60 107.034 60H84.4886V50H106.67C111.67 50 115.686 49.1364 118.716 47.4091C121.746 45.6818 123.943 43.3485 125.307 40.4091C126.701 37.4394 127.398 34.0909 127.398 30.3636C127.398 26.6364 126.701 23.303 125.307 20.3636C123.943 17.4242 121.731 15.1212 118.67 13.4545C115.61 11.7576 111.549 10.9091 106.489 10.9091H86.6705V94H75.3977Z" fill="#FF0000"/>
</svg>
